CATALOG 0000000000000
FILE "College Slam v1.000 (1996)(Acclaim)(NTSC)(US)(Track 01 of 54)[!].iso" BINARY
  TRACK 01 MODE1/2048
    INDEX 01 00:00:00
FILE "College Slam v1.000 (1996)(Acclaim)(NTSC)(US)(Track 02 of 54)[!].wav" WAVE
  TRACK 02 AUDIO
    PREGAP 00:01:74
    INDEX 01 00:00:00
FILE "College Slam v1.000 (1996)(Acclaim)(NTSC)(US)(Track 03 of 54)[!].wav" WAVE
  TRACK 03 AUDIO
    INDEX 00 00:00:00
    INDEX 01 00:02:02
FILE "College Slam v1.000 (1996)(Acclaim)(NTSC)(US)(Track 04 of 54)[!].wav" WAVE
  TRACK 04 AUDIO
    INDEX 00 00:00:00
    INDEX 01 00:02:02
FILE "College Slam v1.000 (1996)(Acclaim)(NTSC)(US)(Track 05 of 54)[!].wav" WAVE
  TRACK 05 AUDIO
    INDEX 00 00:00:00
    INDEX 01 00:02:02
FILE "College Slam v1.000 (1996)(Acclaim)(NTSC)(US)(Track 06 of 54)[!].wav" WAVE
  TRACK 06 AUDIO
    INDEX 00 00:00:00
    INDEX 01 00:02:02
FILE "College Slam v1.000 (1996)(Acclaim)(NTSC)(US)(Track 07 of 54)[!].wav" WAVE
  TRACK 07 AUDIO
    INDEX 00 00:00:00
    INDEX 01 00:02:02
FILE "College Slam v1.000 (1996)(Acclaim)(NTSC)(US)(Track 08 of 54)[!].wav" WAVE
  TRACK 08 AUDIO
    INDEX 00 00:00:00
    INDEX 01 00:02:02
FILE "College Slam v1.000 (1996)(Acclaim)(NTSC)(US)(Track 09 of 54)[!].wav" WAVE
  TRACK 09 AUDIO
    INDEX 00 00:00:00
    INDEX 01 00:02:02
FILE "College Slam v1.000 (1996)(Acclaim)(NTSC)(US)(Track 10 of 54)[!].wav" WAVE
  TRACK 10 AUDIO
    INDEX 00 00:00:00
    INDEX 01 00:02:02
FILE "College Slam v1.000 (1996)(Acclaim)(NTSC)(US)(Track 11 of 54)[!].wav" WAVE
  TRACK 11 AUDIO
    INDEX 00 00:00:00
    INDEX 01 00:02:02
FILE "College Slam v1.000 (1996)(Acclaim)(NTSC)(US)(Track 12 of 54)[!].wav" WAVE
  TRACK 12 AUDIO
    INDEX 00 00:00:00
    INDEX 01 00:02:02
FILE "College Slam v1.000 (1996)(Acclaim)(NTSC)(US)(Track 13 of 54)[!].wav" WAVE
  TRACK 13 AUDIO
    INDEX 00 00:00:00
    INDEX 01 00:02:02
FILE "College Slam v1.000 (1996)(Acclaim)(NTSC)(US)(Track 14 of 54)[!].wav" WAVE
  TRACK 14 AUDIO
    INDEX 00 00:00:00
    INDEX 01 00:02:02
FILE "College Slam v1.000 (1996)(Acclaim)(NTSC)(US)(Track 15 of 54)[!].wav" WAVE
  TRACK 15 AUDIO
    INDEX 00 00:00:00
    INDEX 01 00:02:02
FILE "College Slam v1.000 (1996)(Acclaim)(NTSC)(US)(Track 16 of 54)[!].wav" WAVE
  TRACK 16 AUDIO
    INDEX 00 00:00:00
    INDEX 01 00:02:02
FILE "College Slam v1.000 (1996)(Acclaim)(NTSC)(US)(Track 17 of 54)[!].wav" WAVE
  TRACK 17 AUDIO
    INDEX 00 00:00:00
    INDEX 01 00:02:02
FILE "College Slam v1.000 (1996)(Acclaim)(NTSC)(US)(Track 18 of 54)[!].wav" WAVE
  TRACK 18 AUDIO
    INDEX 00 00:00:00
    INDEX 01 00:02:02
FILE "College Slam v1.000 (1996)(Acclaim)(NTSC)(US)(Track 19 of 54)[!].wav" WAVE
  TRACK 19 AUDIO
    INDEX 00 00:00:00
    INDEX 01 00:02:02
FILE "College Slam v1.000 (1996)(Acclaim)(NTSC)(US)(Track 20 of 54)[!].wav" WAVE
  TRACK 20 AUDIO
    INDEX 00 00:00:00
    INDEX 01 00:02:02
FILE "College Slam v1.000 (1996)(Acclaim)(NTSC)(US)(Track 21 of 54)[!].wav" WAVE
  TRACK 21 AUDIO
    INDEX 00 00:00:00
    INDEX 01 00:02:02
FILE "College Slam v1.000 (1996)(Acclaim)(NTSC)(US)(Track 22 of 54)[!].wav" WAVE
  TRACK 22 AUDIO
    INDEX 00 00:00:00
    INDEX 01 00:02:02
FILE "College Slam v1.000 (1996)(Acclaim)(NTSC)(US)(Track 23 of 54)[!].wav" WAVE
  TRACK 23 AUDIO
    INDEX 00 00:00:00
    INDEX 01 00:02:02
FILE "College Slam v1.000 (1996)(Acclaim)(NTSC)(US)(Track 24 of 54)[!].wav" WAVE
  TRACK 24 AUDIO
    INDEX 00 00:00:00
    INDEX 01 00:02:02
FILE "College Slam v1.000 (1996)(Acclaim)(NTSC)(US)(Track 25 of 54)[!].wav" WAVE
  TRACK 25 AUDIO
    INDEX 00 00:00:00
    INDEX 01 00:02:02
FILE "College Slam v1.000 (1996)(Acclaim)(NTSC)(US)(Track 26 of 54)[!].wav" WAVE
  TRACK 26 AUDIO
    INDEX 00 00:00:00
    INDEX 01 00:02:02
FILE "College Slam v1.000 (1996)(Acclaim)(NTSC)(US)(Track 27 of 54)[!].wav" WAVE
  TRACK 27 AUDIO
    INDEX 00 00:00:00
    INDEX 01 00:02:02
FILE "College Slam v1.000 (1996)(Acclaim)(NTSC)(US)(Track 28 of 54)[!].wav" WAVE
  TRACK 28 AUDIO
    INDEX 00 00:00:00
    INDEX 01 00:02:02
FILE "College Slam v1.000 (1996)(Acclaim)(NTSC)(US)(Track 29 of 54)[!].wav" WAVE
  TRACK 29 AUDIO
    INDEX 00 00:00:00
    INDEX 01 00:02:03
FILE "College Slam v1.000 (1996)(Acclaim)(NTSC)(US)(Track 30 of 54)[!].wav" WAVE
  TRACK 30 AUDIO
    INDEX 00 00:00:00
    INDEX 01 00:02:02
FILE "College Slam v1.000 (1996)(Acclaim)(NTSC)(US)(Track 31 of 54)[!].wav" WAVE
  TRACK 31 AUDIO
    INDEX 00 00:00:00
    INDEX 01 00:02:02
FILE "College Slam v1.000 (1996)(Acclaim)(NTSC)(US)(Track 32 of 54)[!].wav" WAVE
  TRACK 32 AUDIO
    INDEX 00 00:00:00
    INDEX 01 00:02:02
FILE "College Slam v1.000 (1996)(Acclaim)(NTSC)(US)(Track 33 of 54)[!].wav" WAVE
  TRACK 33 AUDIO
    INDEX 00 00:00:00
    INDEX 01 00:02:02
FILE "College Slam v1.000 (1996)(Acclaim)(NTSC)(US)(Track 34 of 54)[!].wav" WAVE
  TRACK 34 AUDIO
    INDEX 00 00:00:00
    INDEX 01 00:02:02
FILE "College Slam v1.000 (1996)(Acclaim)(NTSC)(US)(Track 35 of 54)[!].wav" WAVE
  TRACK 35 AUDIO
    INDEX 00 00:00:00
    INDEX 01 00:02:02
FILE "College Slam v1.000 (1996)(Acclaim)(NTSC)(US)(Track 36 of 54)[!].wav" WAVE
  TRACK 36 AUDIO
    INDEX 00 00:00:00
    INDEX 01 00:02:02
FILE "College Slam v1.000 (1996)(Acclaim)(NTSC)(US)(Track 37 of 54)[!].wav" WAVE
  TRACK 37 AUDIO
    INDEX 00 00:00:00
    INDEX 01 00:02:02
FILE "College Slam v1.000 (1996)(Acclaim)(NTSC)(US)(Track 38 of 54)[!].wav" WAVE
  TRACK 38 AUDIO
    INDEX 00 00:00:00
    INDEX 01 00:02:03
FILE "College Slam v1.000 (1996)(Acclaim)(NTSC)(US)(Track 39 of 54)[!].wav" WAVE
  TRACK 39 AUDIO
    INDEX 00 00:00:00
    INDEX 01 00:02:02
FILE "College Slam v1.000 (1996)(Acclaim)(NTSC)(US)(Track 40 of 54)[!].wav" WAVE
  TRACK 40 AUDIO
    INDEX 00 00:00:00
    INDEX 01 00:02:02
FILE "College Slam v1.000 (1996)(Acclaim)(NTSC)(US)(Track 41 of 54)[!].wav" WAVE
  TRACK 41 AUDIO
    INDEX 00 00:00:00
    INDEX 01 00:02:02
FILE "College Slam v1.000 (1996)(Acclaim)(NTSC)(US)(Track 42 of 54)[!].wav" WAVE
  TRACK 42 AUDIO
    INDEX 00 00:00:00
    INDEX 01 00:02:02
FILE "College Slam v1.000 (1996)(Acclaim)(NTSC)(US)(Track 43 of 54)[!].wav" WAVE
  TRACK 43 AUDIO
    INDEX 00 00:00:00
    INDEX 01 00:02:02
FILE "College Slam v1.000 (1996)(Acclaim)(NTSC)(US)(Track 44 of 54)[!].wav" WAVE
  TRACK 44 AUDIO
    INDEX 00 00:00:00
    INDEX 01 00:02:02
FILE "College Slam v1.000 (1996)(Acclaim)(NTSC)(US)(Track 45 of 54)[!].wav" WAVE
  TRACK 45 AUDIO
    INDEX 00 00:00:00
    INDEX 01 00:02:02
FILE "College Slam v1.000 (1996)(Acclaim)(NTSC)(US)(Track 46 of 54)[!].wav" WAVE
  TRACK 46 AUDIO
    INDEX 00 00:00:00
    INDEX 01 00:02:02
FILE "College Slam v1.000 (1996)(Acclaim)(NTSC)(US)(Track 47 of 54)[!].wav" WAVE
  TRACK 47 AUDIO
    INDEX 00 00:00:00
    INDEX 01 00:02:02
FILE "College Slam v1.000 (1996)(Acclaim)(NTSC)(US)(Track 48 of 54)[!].wav" WAVE
  TRACK 48 AUDIO
    INDEX 00 00:00:00
    INDEX 01 00:02:02
FILE "College Slam v1.000 (1996)(Acclaim)(NTSC)(US)(Track 49 of 54)[!].wav" WAVE
  TRACK 49 AUDIO
    INDEX 00 00:00:00
    INDEX 01 00:02:02
FILE "College Slam v1.000 (1996)(Acclaim)(NTSC)(US)(Track 50 of 54)[!].wav" WAVE
  TRACK 50 AUDIO
    INDEX 00 00:00:00
    INDEX 01 00:02:02
FILE "College Slam v1.000 (1996)(Acclaim)(NTSC)(US)(Track 51 of 54)[!].wav" WAVE
  TRACK 51 AUDIO
    INDEX 00 00:00:00
    INDEX 01 00:02:02
FILE "College Slam v1.000 (1996)(Acclaim)(NTSC)(US)(Track 52 of 54)[!].wav" WAVE
  TRACK 52 AUDIO
    INDEX 00 00:00:00
    INDEX 01 00:02:02
FILE "College Slam v1.000 (1996)(Acclaim)(NTSC)(US)(Track 53 of 54)[!].wav" WAVE
  TRACK 53 AUDIO
    INDEX 00 00:00:00
    INDEX 01 00:02:02
FILE "College Slam v1.000 (1996)(Acclaim)(NTSC)(US)(Track 54 of 54)[!].wav" WAVE
  TRACK 54 AUDIO
    INDEX 00 00:00:00
    INDEX 01 00:02:02
